<?xml version="1.0" standalone="no"?>
<!DOCTYPE svg PUBLIC "-//W3C//DTD SVG 20010904//EN"
 "http://www.w3.org/TR/2001/REC-SVG-20010904/DTD/svg10.dtd">
<svg version="1.0" xmlns="http://www.w3.org/2000/svg"
 width="356.000000pt" height="356.000000pt" viewBox="0 0 356.000000 356.000000"
 preserveAspectRatio="xMidYMid meet">
<metadata>
Created by potrace 1.11, written by Peter Selinger 2001-2013
</metadata>
<g transform="translate(0.000000,356.000000) scale(0.100000,-0.100000)"
fill="#000000" stroke="none">
<path d="M280 3466 l0 -93 93 0 92 1 0 -187 c0 -180 1 -187 20 -188 11 0 54
-2 95 -2 l75 -2 1 -260 c1 -143 2 -269 3 -280 1 -18 8 -20 91 -19 57 0 90 -4
91 -10 0 -6 2 -90 2 -186 l2 -175 93 -3 92 -3 0 -93 0 -93 -93 1 -94 1 0 -360
c-1 -198 1 -367 3 -375 3 -13 21 -16 94 -15 l90 1 0 -93 c0 -67 3 -93 13 -94
6 -1 48 -2 92 -3 l80 -1 2 -80 c0 -44 2 -85 2 -92 1 -8 30 -13 93 -15 l93 -3
1 -85 c1 -47 2 -88 3 -92 0 -3 74 -7 164 -7 89 0 172 0 184 0 21 -1 22 -6 25
-94 l3 -92 93 0 93 0 -2 -88 c-1 -48 1 -90 3 -93 3 -2 45 -5 94 -6 l89 -1 0
92 c-1 75 2 91 15 92 8 1 92 2 185 3 l170 1 3 187 2 188 280 0 280 0 0 -94 0
-93 95 0 95 0 0 93 0 94 -95 0 -95 0 0 93 0 93 -181 -1 c-109 0 -183 4 -187
10 -3 5 -6 48 -7 95 l0 85 -92 0 -93 0 0 656 0 656 93 -1 92 0 1 69 c3 136 -9
120 96 120 l93 0 -1 185 0 185 -88 1 c-50 1 -91 6 -95 12 -4 6 -6 47 -5 91 1
53 -2 81 -9 83 -7 3 -49 4 -94 4 l-83 -1 0 93 c0 50 -3 92 -7 93 -5 0 -47 1
-95 2 l-87 1 0 75 c1 42 0 84 0 94 -1 16 -17 17 -185 17 l-185 0 -3 -107 c-2
-60 -1 -144 2 -188 l5 -80 87 0 c49 1 89 -2 89 -5 1 -3 2 -44 3 -92 2 -100 14
-91 -111 -89 l-73 1 0 -147 c-1 -82 -1 -250 0 -375 l0 -228 -95 0 -95 0 -1 43
c0 23 0 65 1 92 l1 51 -83 -1 c-46 0 -89 1 -95 3 -9 3 -13 31 -13 93 0 64 -4
89 -12 90 -7 1 -42 3 -78 4 -36 1 -72 3 -80 4 -13 1 -15 38 -15 279 l0 277
-92 0 c-58 -1 -93 3 -94 10 0 5 -1 47 -1 93 0 55 -4 82 -11 83 -7 0 -133 1
-282 2 l-269 2 1 93 0 92 -188 0 -189 0 0 -94z m936 -469 l1 -187 -93 0 -94 0
0 188 0 188 93 -1 92 0 1 -188z"/>
<path d="M2725 364 c-6 -6 -10 -45 -9 -92 2 -77 1 -82 -20 -83 -11 0 -95 -1
-186 -2 l-165 -2 0 -90 0 -90 373 -3 372 -2 0 94 0 93 73 1 c133 1 118 -11
115 94 l-3 93 -269 0 c-182 0 -273 -4 -281 -11z"/>
</g>
</svg>
